# xmcd
#
# Track frame offsets:
#	150
#	18455
#	35552
#	50777
#	73650
#	90797
#	109202
#	128232
#	145792
#	164350
#	182935
#	204120
#	219800
#	235880
#
# Disc length: 3426 seconds
# Revision: 21
# Processed by: cddbd v1.5.2PL0 Copyright (c) Steve Scherf et al.
# Submitted via: dBpowerAMP V12.0
#
DISCID=c00d600e
DTITLE=Nas - God's Son [Columbia CK 86930]
DYEAR=2002
DGENRE=Rap
TTITLE0=Get Down
TTITLE1=The Cross
TTITLE2=Made You Look
TTITLE3=Last Real Nigga Alive
TTITLE4=Zone Out (featuring Bravehearts)
TTITLE5=Hey Nas (featuring Kelis and Claudette Ortiz of City High)
TTITLE6=I Can
TTITLE7=Book Of Rhymes
TTITLE8=Thugz Mansion (N.Y.) (featuring 2pac and J. Phoenix)
TTITLE9=Mastermind
TTITLE10=Warrior Song (featuring Alicia Keys)
TTITLE11=Revolutionary Warfare (featuring Lake)
TTITLE12=Dance
TTITLE13=Heaven
EXTD=
EXTT0=
EXTT1=
EXTT2=
EXTT3=
EXTT4=
EXTT5=
EXTT6=
EXTT7=
EXTT8=
EXTT9=
EXTT10=
EXTT11=
EXTT12=
EXTT13=
PLAYORDER=
